<svg width="49" height="49" viewBox="0 0 49 49" fill="none" xmlns="http://www.w3.org/2000/svg">
<g filter="url(#filter0_di_1_234)">
<ellipse cx="24.5024" cy="20.5" rx="20.5024" ry="20.5" fill="#5527A3"/>
</g>
<g filter="url(#filter1_d_1_234)">
<path fill-rule="evenodd" clip-rule="evenodd" d="M28.3117 30C26.1237 30 23.0113 29.8878 20.9357 29.8878C17.0537 29.8878 16 27.5521 16 24.5823C16 21.6125 16.0572 18.3278 16.0572 17.202C16.0572 13.8656 17.5095 12.0129 21.1095 12.0129C22.441 12.0129 27.4488 12 29.1534 12C32.429 12 34 13.376 34 17.4047C34 18.399 33.9279 20.2603 33.9279 25.4213C33.9279 28.6671 32.4205 30 28.3117 30ZM25.0254 16.294C18.9152 16.294 18.6205 25.7534 25.1293 25.7534C31.0742 25.7534 31.1124 16.294 25.0254 16.294ZM30.5484 14.4198C28.7823 14.4198 28.6975 17.1395 30.5802 17.1395C32.2975 17.1351 32.3102 14.4198 30.5484 14.4198Z" fill="white"/>
</g>
<defs>
<filter id="filter0_di_1_234" x="0" y="0" width="49.0049" height="49" filterUnits="userSpaceOnUse" color-interpolation-filters="sRGB">
<feFlood flood-opacity="0" result="BackgroundImageFix"/>
<feColorMatrix in="SourceAlpha" type="matrix" values="0 0 0 0 0 0 0 0 0 0 0 0 0 0 0 0 0 0 127 0" result="hardAlpha"/>
<feOffset dy="4"/>
<feGaussianBlur stdDeviation="2"/>
<feComposite in2="hardAlpha" operator="out"/>
<feColorMatrix type="matrix" values="0 0 0 0 0 0 0 0 0 0 0 0 0 0 0 0 0 0 0.25 0"/>
<feBlend mode="normal" in2="BackgroundImageFix" result="effect1_dropShadow_1_234"/>
<feBlend mode="normal" in="SourceGraphic" in2="effect1_dropShadow_1_234" result="shape"/>
<feColorMatrix in="SourceAlpha" type="matrix" values="0 0 0 0 0 0 0 0 0 0 0 0 0 0 0 0 0 0 127 0" result="hardAlpha"/>
<feOffset/>
<feGaussianBlur stdDeviation="10"/>
<feComposite in2="hardAlpha" operator="arithmetic" k2="-1" k3="1"/>
<feColorMatrix type="matrix" values="0 0 0 0 1 0 0 0 0 1 0 0 0 0 1 0 0 0 0.4 0"/>
<feBlend mode="normal" in2="shape" result="effect2_innerShadow_1_234"/>
</filter>
<filter id="filter1_d_1_234" x="12" y="12" width="26" height="26" filterUnits="userSpaceOnUse" color-interpolation-filters="sRGB">
<feFlood flood-opacity="0" result="BackgroundImageFix"/>
<feColorMatrix in="SourceAlpha" type="matrix" values="0 0 0 0 0 0 0 0 0 0 0 0 0 0 0 0 0 0 127 0" result="hardAlpha"/>
<feOffset dy="4"/>
<feGaussianBlur stdDeviation="2"/>
<feComposite in2="hardAlpha" operator="out"/>
<feColorMatrix type="matrix" values="0 0 0 0 0 0 0 0 0 0 0 0 0 0 0 0 0 0 0.25 0"/>
<feBlend mode="normal" in2="BackgroundImageFix" result="effect1_dropShadow_1_234"/>
<feBlend mode="normal" in="SourceGraphic" in2="effect1_dropShadow_1_234" result="shape"/>
</filter>
</defs>
</svg>
