<svg width="49" height="49" viewBox="0 0 49 49" fill="none" xmlns="http://www.w3.org/2000/svg">
<g filter="url(#filter0_di_1_230)">
<ellipse cx="24.5024" cy="20.5" rx="20.5024" ry="20.5" fill="#5527A3"/>
</g>
<g filter="url(#filter1_d_1_230)">
<path fill-rule="evenodd" clip-rule="evenodd" d="M33.6445 26.269C33.4072 26.5237 32.7752 26.5801 32.7752 26.5801H29.4067C29.4067 26.5801 28.9358 26.685 28.1027 25.8542C27.5305 25.2834 26.9423 24.4414 26.4729 24.0914C26.1929 23.8828 25.9295 23.9878 25.9295 23.9878C25.9295 23.9878 25.438 24.0102 25.3862 24.5062C25.2952 25.3774 25.1689 25.8542 25.1689 25.8542C25.1689 25.8542 25.1089 26.2225 24.9516 26.3727C24.7834 26.5331 24.5169 26.5801 24.5169 26.5801C24.5169 26.5801 19.8679 27.5801 16.2586 22.0176C13.6539 18.0032 13.3248 16.8331 13.3248 16.8331C13.3248 16.8331 13.1038 16.5495 13.3248 16.2109C13.558 15.8535 13.8681 15.8999 13.8681 15.8999H16.9106C16.9106 15.8999 17.247 15.9344 17.4539 16.1072C17.6807 16.2966 17.7799 16.6257 17.7799 16.6257C17.7799 16.6257 18.4469 18.1647 19.1926 19.3217C20.2229 20.9204 20.7138 20.7734 20.7138 20.7734C20.7138 20.7734 21.6036 20.5371 21.0398 16.9368C20.9618 16.4387 19.9532 16.3146 19.9532 16.3146C19.9532 16.3146 19.9438 15.8847 20.1705 15.6924C20.4305 15.4719 20.7138 15.4851 20.7138 15.4851C20.7138 15.4851 21.165 15.4099 22.7784 15.3814C23.594 15.367 24.191 15.3814 24.191 15.3814C24.191 15.3814 24.588 15.3688 25.0603 15.6925C25.2888 15.8491 25.2776 16.211 25.2776 16.211C25.2776 16.211 25.1818 18.8093 25.2776 20.1513C25.3189 20.7284 25.6036 20.7734 25.6036 20.7734C25.6036 20.7734 25.9094 20.9994 27.1248 19.3217C27.894 18.2601 28.5375 16.7294 28.5375 16.7294C28.5375 16.7294 28.6968 16.2929 28.8634 16.1073C29.0225 15.9302 29.2981 15.8999 29.2981 15.8999H33.2099C33.2099 15.8999 33.4511 15.8914 33.5359 16.1073C33.6138 16.3055 33.5359 16.7294 33.5359 16.7294C33.5359 16.7294 33.4931 17.199 33.1013 17.7664C32.1759 19.1061 30.3847 21.2919 30.3847 21.2919C30.3847 21.2919 30.2502 21.5887 30.2761 21.8103C30.3045 22.0543 30.4934 22.2251 30.4934 22.2251C30.4934 22.2251 31.8434 23.3908 32.7752 24.4026C33.2787 24.9493 33.6445 25.6469 33.6445 25.6469C33.6445 25.6469 33.8372 26.0621 33.6445 26.269Z" fill="white"/>
</g>
<defs>
<filter id="filter0_di_1_230" x="0" y="0" width="49.0049" height="49" filterUnits="userSpaceOnUse" color-interpolation-filters="sRGB">
<feFlood flood-opacity="0" result="BackgroundImageFix"/>
<feColorMatrix in="SourceAlpha" type="matrix" values="0 0 0 0 0 0 0 0 0 0 0 0 0 0 0 0 0 0 127 0" result="hardAlpha"/>
<feOffset dy="4"/>
<feGaussianBlur stdDeviation="2"/>
<feComposite in2="hardAlpha" operator="out"/>
<feColorMatrix type="matrix" values="0 0 0 0 0 0 0 0 0 0 0 0 0 0 0 0 0 0 0.25 0"/>
<feBlend mode="normal" in2="BackgroundImageFix" result="effect1_dropShadow_1_230"/>
<feBlend mode="normal" in="SourceGraphic" in2="effect1_dropShadow_1_230" result="shape"/>
<feColorMatrix in="SourceAlpha" type="matrix" values="0 0 0 0 0 0 0 0 0 0 0 0 0 0 0 0 0 0 127 0" result="hardAlpha"/>
<feOffset/>
<feGaussianBlur stdDeviation="10"/>
<feComposite in2="hardAlpha" operator="arithmetic" k2="-1" k3="1"/>
<feColorMatrix type="matrix" values="0 0 0 0 1 0 0 0 0 1 0 0 0 0 1 0 0 0 0.4 0"/>
<feBlend mode="normal" in2="shape" result="effect2_innerShadow_1_230"/>
</filter>
<filter id="filter1_d_1_230" x="9.22656" y="15.375" width="28.5037" height="19.275" filterUnits="userSpaceOnUse" color-interpolation-filters="sRGB">
<feFlood flood-opacity="0" result="BackgroundImageFix"/>
<feColorMatrix in="SourceAlpha" type="matrix" values="0 0 0 0 0 0 0 0 0 0 0 0 0 0 0 0 0 0 127 0" result="hardAlpha"/>
<feOffset dy="4"/>
<feGaussianBlur stdDeviation="2"/>
<feComposite in2="hardAlpha" operator="out"/>
<feColorMatrix type="matrix" values="0 0 0 0 0 0 0 0 0 0 0 0 0 0 0 0 0 0 0.25 0"/>
<feBlend mode="normal" in2="BackgroundImageFix" result="effect1_dropShadow_1_230"/>
<feBlend mode="normal" in="SourceGraphic" in2="effect1_dropShadow_1_230" result="shape"/>
</filter>
</defs>
</svg>
