<svg width="50" height="49" viewBox="0 0 50 49" fill="none" xmlns="http://www.w3.org/2000/svg">
<g filter="url(#filter0_di_1_238)">
<circle cx="24.5114" cy="20.5036" r="20.5036" fill="#5527A3"/>
</g>
<g filter="url(#filter1_d_1_238)">
<path d="M14.1684 30.8346L15.6331 25.4526C14.668 23.7982 14.1609 21.9166 14.1641 20.0013C14.1641 14.0181 19.0142 9.16797 24.9974 9.16797C30.9807 9.16797 35.8307 14.0181 35.8307 20.0013C35.8307 25.9846 30.9807 30.8346 24.9974 30.8346C23.0829 30.8377 21.2021 30.3311 19.5482 29.3667L14.1684 30.8346ZM21.0877 14.9183C20.9478 14.927 20.8111 14.9638 20.6857 15.0266C20.5682 15.0932 20.4609 15.1764 20.3672 15.2736C20.2372 15.3961 20.1636 15.5022 20.0845 15.6051C19.6841 16.1262 19.4687 16.7658 19.4724 17.423C19.4746 17.9538 19.6132 18.4706 19.8299 18.9537C20.273 19.9309 21.0021 20.9655 21.9652 21.9242C22.197 22.155 22.4234 22.3868 22.6672 22.6024C23.8625 23.6548 25.2869 24.4138 26.8272 24.8189L27.4436 24.9131C27.644 24.924 27.8444 24.9088 28.0459 24.8991C28.3614 24.8828 28.6695 24.7973 28.9483 24.6488C29.1282 24.5535 29.2127 24.5058 29.3632 24.4105C29.3632 24.4105 29.4098 24.3801 29.4987 24.313C29.6449 24.2046 29.7348 24.1277 29.8562 24.001C29.9461 23.9078 30.0241 23.7984 30.0837 23.6738C30.1682 23.4972 30.2527 23.1603 30.2873 22.8797C30.3133 22.6652 30.3057 22.5482 30.3025 22.4756C30.2982 22.3597 30.2017 22.2395 30.0967 22.1886L29.4662 21.9058C29.4662 21.9058 28.5237 21.4952 27.9484 21.2331C27.8878 21.2066 27.8228 21.1916 27.7567 21.1886C27.6825 21.181 27.6076 21.1894 27.537 21.2131C27.4664 21.2368 27.4016 21.2754 27.3472 21.3262V21.3241C27.3417 21.3241 27.2692 21.3858 26.4859 22.3348C26.441 22.3952 26.379 22.4409 26.308 22.4659C26.237 22.491 26.1602 22.4944 26.0872 22.4756C26.0167 22.4568 25.9475 22.4329 25.8803 22.4041C25.746 22.3478 25.6994 22.3261 25.6073 22.2861L25.6019 22.2839C24.9821 22.0133 24.4083 21.6478 23.9011 21.2006C23.7646 21.0814 23.6378 20.9514 23.5078 20.8257C23.0816 20.4176 22.7102 19.9558 22.4028 19.4521L22.3389 19.3491C22.293 19.28 22.2559 19.2054 22.2284 19.1271C22.1872 18.9678 22.2945 18.84 22.2945 18.84C22.2945 18.84 22.5577 18.5518 22.6802 18.3958C22.7821 18.2662 22.8772 18.1313 22.9651 17.9917C23.0929 17.7859 23.133 17.5746 23.0658 17.4111C22.7625 16.6701 22.4483 15.9323 22.1255 15.2C22.0616 15.0548 21.872 14.9508 21.6997 14.9302C21.6412 14.9237 21.5827 14.9172 21.5242 14.9129C21.3788 14.9057 21.233 14.9082 21.0877 14.9183Z" fill="white"/>
</g>
<defs>
<filter id="filter0_di_1_238" x="0.0078125" y="0" width="49.0071" height="49.0072" filterUnits="userSpaceOnUse" color-interpolation-filters="sRGB">
<feFlood flood-opacity="0" result="BackgroundImageFix"/>
<feColorMatrix in="SourceAlpha" type="matrix" values="0 0 0 0 0 0 0 0 0 0 0 0 0 0 0 0 0 0 127 0" result="hardAlpha"/>
<feOffset dy="4"/>
<feGaussianBlur stdDeviation="2"/>
<feComposite in2="hardAlpha" operator="out"/>
<feColorMatrix type="matrix" values="0 0 0 0 0 0 0 0 0 0 0 0 0 0 0 0 0 0 0.25 0"/>
<feBlend mode="normal" in2="BackgroundImageFix" result="effect1_dropShadow_1_238"/>
<feBlend mode="normal" in="SourceGraphic" in2="effect1_dropShadow_1_238" result="shape"/>
<feColorMatrix in="SourceAlpha" type="matrix" values="0 0 0 0 0 0 0 0 0 0 0 0 0 0 0 0 0 0 127 0" result="hardAlpha"/>
<feOffset/>
<feGaussianBlur stdDeviation="10"/>
<feComposite in2="hardAlpha" operator="arithmetic" k2="-1" k3="1"/>
<feColorMatrix type="matrix" values="0 0 0 0 1 0 0 0 0 1 0 0 0 0 1 0 0 0 0.4 0"/>
<feBlend mode="normal" in2="shape" result="effect2_innerShadow_1_238"/>
</filter>
<filter id="filter1_d_1_238" x="10.1641" y="9.16797" width="29.6667" height="29.6666" filterUnits="userSpaceOnUse" color-interpolation-filters="sRGB">
<feFlood flood-opacity="0" result="BackgroundImageFix"/>
<feColorMatrix in="SourceAlpha" type="matrix" values="0 0 0 0 0 0 0 0 0 0 0 0 0 0 0 0 0 0 127 0" result="hardAlpha"/>
<feOffset dy="4"/>
<feGaussianBlur stdDeviation="2"/>
<feComposite in2="hardAlpha" operator="out"/>
<feColorMatrix type="matrix" values="0 0 0 0 0 0 0 0 0 0 0 0 0 0 0 0 0 0 0.25 0"/>
<feBlend mode="normal" in2="BackgroundImageFix" result="effect1_dropShadow_1_238"/>
<feBlend mode="normal" in="SourceGraphic" in2="effect1_dropShadow_1_238" result="shape"/>
</filter>
</defs>
</svg>
