<svg width="20" height="20" viewBox="0 0 20 20" fill="none" xmlns="http://www.w3.org/2000/svg">
    <path d="M2.57324 11.8263H3.93482C4.14308 15.4564 7.15088 18.325 10.8207 18.3263C14.2766 18.3816 17.2231 15.8326 17.6652 12.4043C17.9957 9.84177 16.8481 7.39994 14.8466 5.98612L14.2159 5.54057L14.2158 9.94298H12.8491V3.15967H19.6324V4.52634L15.4831 4.52615L16.2816 5.22686C18.0295 6.76062 19.1002 9.00479 19.0982 11.4499C19.095 15.2367 16.5193 18.5372 12.8467 19.4603C9.17419 20.3834 5.34394 18.6931 3.55059 15.3579C2.9494 14.2398 2.62874 13.033 2.57324 11.8263Z" fill="white"/>
    <path d="M9.19013 5.77913C9.21155 5.62288 9.22226 5.46143 9.22226 5.28955C9.22226 5.12289 9.21155 4.95622 9.18478 4.79997L10.2717 3.97705C10.3185 3.9395 10.3505 3.88731 10.3623 3.82938C10.374 3.77145 10.3647 3.71136 10.3359 3.65934L9.30793 1.93018C9.2775 1.87802 9.22917 1.83794 9.1714 1.81699C9.11364 1.79604 9.05013 1.79554 8.99203 1.81559L7.71236 2.31559C7.44464 2.11768 7.16087 1.95101 6.84496 1.82601L6.65221 0.503094C6.64273 0.443474 6.61158 0.389139 6.56442 0.349957C6.51727 0.310774 6.45723 0.289342 6.39521 0.289552H4.33917C4.21067 0.289552 4.10893 0.378094 4.08752 0.503094L3.89476 1.82601C3.57886 1.95101 3.28973 2.12289 3.02737 2.31559L1.7477 1.81559C1.62991 1.77393 1.49605 1.81559 1.4318 1.93018L0.409134 3.65934C0.344883 3.76872 0.3663 3.90413 0.473386 3.97705L1.5603 4.79997C1.53353 4.95622 1.51211 5.12809 1.51211 5.28955C1.51211 5.45101 1.52282 5.62288 1.54959 5.77913L0.462677 6.60205C0.41584 6.6396 0.383837 6.69179 0.372122 6.74972C0.360406 6.80766 0.369702 6.86775 0.398426 6.91976L1.42645 8.64893C1.4907 8.76351 1.62455 8.79997 1.74235 8.76351L3.02202 8.26351C3.28973 8.46143 3.57351 8.62809 3.88941 8.75309L4.08216 10.076C4.10893 10.201 4.21067 10.2896 4.33917 10.2896H6.39521C6.52371 10.2896 6.63079 10.201 6.64686 10.076L6.83961 8.75309C7.15551 8.62809 7.44464 8.46143 7.707 8.26351L8.98667 8.76351C9.10447 8.80518 9.23832 8.76351 9.30257 8.64893L10.3306 6.91976C10.3948 6.80518 10.3681 6.67497 10.2663 6.60205L9.19013 5.77913ZM5.36719 7.16455C4.30704 7.16455 3.43965 6.3208 3.43965 5.28955C3.43965 4.2583 4.30704 3.41455 5.36719 3.41455C6.42733 3.41455 7.29472 4.2583 7.29472 5.28955C7.29472 6.3208 6.42733 7.16455 5.36719 7.16455Z" fill="white"/>
</svg>
