<svg width="150" height="85" viewBox="0 0 150 85" fill="none" xmlns="http://www.w3.org/2000/svg">
<g clip-path="url(#clip0_1425_1836)">
<path d="M20.6 61.2C20 60.6 19.3 59.9 18.4 59.4C17 58.6 15.1 58 12.6 58C9.1 58 5.9 59.4 3.7 61.8C1.4 64.1 0 67.4 0 71.2C0 75 1.4 78.3 3.7 80.6C6 83 9.2 84.4 12.6 84.4C15 84.4 17 83.8 18.4 83C19.3 82.5 20 81.9 20.6 81.2V83.7H25.2V58.7H20.6V61.2ZM12.7 80C10.4 80 8.4 79.1 7 77.5C5.6 75.9 4.7 73.7 4.7 71.2C4.7 68.7 5.6 66.4 7 64.9C8.4 63.3 10.4 62.4 12.7 62.4C15.1 62.4 17.2 63.3 18.7 64.9C20.2 66.5 21.1 68.7 21.1 71.2C21.1 73.7 20.2 75.9 18.7 77.5C17.2 79.1 15.1 80 12.7 80Z" fill="#F37022"/>
<path d="M53.5969 58.6992H52.5969H48.2969L42.2969 66.7992L36.2969 58.6992H30.9969L39.7969 70.3992L30.2969 83.6992H35.4969L42.3969 74.0992L49.1969 83.6992H54.3969L44.8969 70.3992L53.5969 58.6992Z" fill="#F37022"/>
<path d="M75.2 59C73.8 58.4 72.2 58 70.5 58C66.9 58 63.8 59.3 61.5 61.6C59.3 64 58 67.3 58 71.3V71.5C58 75.3 59.3 78.6 61.5 80.8C63.7 83.1 66.9 84.3 70.6 84.3C72.4 84.3 74.1 84.1 75.8 83.4C77.5 82.7 79.1 81.6 80.7 79.9L81 79.5L77.9 76.5L77.5 76.9C76.5 77.9 75.6 78.7 74.5 79.2C73.4 79.7 72.2 80 70.5 80C69.3 80 68.2 79.8 67.3 79.4C65.9 78.8 64.7 77.9 63.9 76.6C63.2 75.5 62.7 74 62.6 72.4H82V71.9C82 71.2 82 70.4 82 70.3C82 66.9 80.9 63.8 78.9 61.5C77.9 60.5 76.7 59.6 75.2 59ZM65.2 64.3C66.6 63.1 68.4 62.4 70.5 62.4C72.4 62.4 74 63.1 75.2 64.3C76.3 65.4 77 66.8 77.1 68.4H62.9C63.1 66.8 64 65.3 65.2 64.3Z" fill="black"/>
<path d="M105.3 59.7998C103.8 58.7998 101.9 58.2998 99.8 58.2998C97.9 58.2998 96.2 58.7998 94.8 59.5998C94 60.0998 93.3 60.6998 92.7 61.3998V58.5998H88V83.5998H92.6V68.8998C92.6 66.9998 93.2 65.4998 94.3 64.3998C95.4 63.2998 96.9 62.6998 98.8 62.6998C99.7 62.6998 100.5 62.7998 101.2 63.0998C102.2 63.4998 103.1 64.1998 103.6 65.0998C104.2 65.9998 104.5 67.1998 104.5 68.5998V83.6998H109.1V67.8998C109.1 66.4998 108.9 65.1998 108.5 63.9998C107.9 62.2998 106.8 60.7998 105.3 59.7998Z" fill="black"/>
<path d="M116.102 83.6992H116.602H120.802V58.6992H116.102V83.6992Z" fill="black"/>
<path d="M140.498 70.3992L149.198 58.6992H143.898L137.898 66.7992L131.898 58.6992H126.598L135.398 70.3992L125.898 83.6992H131.098L137.998 74.0992L144.798 83.6992H149.998L140.498 70.3992Z" fill="black"/>
<path d="M21.0969 46.1996C20.7969 45.5996 20.4969 44.9996 20.2969 44.3996C19.6969 42.4996 19.5969 40.4996 19.9969 38.5996C20.4969 36.6996 21.4969 34.8996 22.9969 33.4996L53.5969 6.19961V0.599609L20.2969 30.5996C18.7969 31.8996 17.6969 33.4996 16.8969 35.0996C15.6969 37.5996 15.2969 40.3996 15.6969 43.0996C16.0969 45.7996 17.2969 48.4996 19.1969 50.6996L20.5969 52.1996L53.5969 22.4996V16.9996L21.0969 46.1996Z" fill="#F37022"/>
<path d="M33 52.1992H39.2L53.6 39.2992V33.6992L33 52.1992Z" fill="#F37022"/>
</g>
<defs>
<clipPath id="clip0_1425_1836">
<rect width="150" height="85" fill="white"/>
</clipPath>
</defs>
</svg>