<svg width="56" height="75" viewBox="0 0 56 75" fill="none" xmlns="http://www.w3.org/2000/svg">
    <path d="M7.88513 66.2291C7.41653 65.4197 7.01893 64.5677 6.72073 63.7015C5.79772 61.046 5.68412 58.1776 6.35152 55.4654C7.01893 52.7674 8.46733 50.2398 10.6967 48.2376L55.4269 7.98043V0L6.74912 43.8356C4.66172 45.71 3.04291 47.9394 1.9211 50.3392C0.231297 53.946 -0.350905 57.9362 0.202897 61.8128C0.742499 65.6895 2.41811 69.4809 5.24392 72.6049L7.23193 74.8059L55.4411 31.3963V23.4301L7.88513 66.2291Z" fill="#F37022"/>
    <path d="M33.7436 74.8108L54.9869 55.6834L55.4271 47.3053L24.8828 74.8108H33.7436Z" fill="#F37022"/>
</svg>
