<svg width="213" height="121" viewBox="0 0 213 121" fill="none" xmlns="http://www.w3.org/2000/svg">
    <path d="M29.4651 87.6242C28.6557 86.7154 27.6333 85.835 26.3837 85.1108C24.2821 83.8754 21.5273 83.0518 18.0483 83.0518C13.0641 83.0518 8.53423 85.054 5.26822 88.4194C2.00221 91.7706 0 96.4992 0 101.909C0 107.32 2.00221 112.048 5.28242 115.414C8.54843 118.779 13.0783 120.781 18.0625 120.781C21.5415 120.781 24.2963 119.958 26.3979 118.722C27.6475 117.984 28.6699 117.118 29.4793 116.209V119.773H36.0539V84.06H29.4793L29.4651 87.6242ZM18.1193 114.548C14.7965 114.548 11.9564 113.199 9.91164 110.955C7.86683 108.711 6.64563 105.545 6.64563 101.909C6.64563 98.2742 7.88103 95.1076 9.91164 92.864C11.9564 90.6204 14.7965 89.2714 18.1193 89.2714C21.5557 89.2714 24.5235 90.6204 26.6535 92.8782C28.7835 95.1218 30.0757 98.2884 30.0757 101.909C30.0757 105.53 28.7835 108.683 26.6535 110.941C24.5235 113.198 21.5557 114.548 18.1193 114.548Z" fill="#F37022"/>
    <path d="M76.6379 84.0545H75.1611H69.0835L60.4924 95.6418L51.8304 84.0545H44.3469L56.8572 100.839L43.2961 119.768H50.6802L60.5492 106.036L70.2905 119.768H77.7455L64.1844 100.768L76.6379 84.0545Z" fill="#F37022"/>
    <path d="M106.174 84.4408C104.158 83.532 101.871 83.035 99.4007 83.035C94.3029 83.035 89.7872 84.9094 86.5922 88.2465C83.383 91.5835 81.4802 96.3405 81.4944 102.049V102.319C81.4944 107.814 83.3262 112.415 86.5212 115.638C89.7162 118.862 94.2603 120.651 99.5427 120.651C102.084 120.651 104.584 120.324 106.998 119.359C109.412 118.393 111.741 116.817 113.942 114.36L114.41 113.835L109.966 109.49L109.44 110.029C108.049 111.492 106.714 112.614 105.18 113.381C103.646 114.133 101.871 114.559 99.5143 114.559C97.7961 114.559 96.2483 114.275 94.8851 113.736C92.8402 112.94 91.2072 111.591 90.057 109.774C89.0062 108.141 88.353 106.096 88.1542 103.739H115.759L115.802 103.043C115.873 101.992 115.873 100.828 115.873 100.828C115.873 95.9429 114.254 91.5125 111.371 88.2749C109.951 86.656 108.191 85.3496 106.174 84.4408ZM91.832 92.0379C93.7917 90.3339 96.4613 89.2831 99.4007 89.2831C102.056 89.2831 104.442 90.3339 106.188 92.0379C107.75 93.5715 108.773 95.6021 108.957 97.8599H88.5376C88.8784 95.5879 90.0712 93.5573 91.832 92.0379Z" fill="white"/>
    <path d="M149.144 85.7016C147.014 84.2816 144.33 83.5148 141.22 83.5148C138.451 83.5148 136.023 84.2106 134.049 85.4034C132.871 86.1134 131.862 87.008 131.039 88.0304V84.0544H124.393V119.753H131.039V98.5811C131.039 95.8973 131.962 93.7104 133.495 92.1768C135.043 90.6432 137.244 89.7486 139.928 89.7486C141.22 89.7486 142.37 89.9616 143.364 90.345C144.855 90.9272 146.02 91.907 146.815 93.2276C147.624 94.5483 148.065 96.2381 148.065 98.2403V119.753H154.639V97.1611C154.639 95.173 154.327 93.3128 153.73 91.6514C152.85 89.1664 151.274 87.1074 149.144 85.7016Z" fill="white"/>
    <path d="M164.579 119.768H165.317H171.225V84.0545H164.579V119.768Z" fill="white"/>
    <path d="M199.439 100.768L211.878 84.0545H204.324L195.733 95.6418L187.085 84.0545H179.601L192.112 100.839L178.551 119.768H185.935L195.804 106.036L205.545 119.768H213L199.439 100.768Z" fill="white"/>
    <path d="M29.2664 66.2291C28.7978 65.4197 28.4002 64.5677 28.102 63.7015C27.179 61.046 27.0654 58.1776 27.7328 55.4654C28.4002 52.7674 29.8486 50.2398 32.078 48.2376L76.8082 7.98043V0L28.1304 43.8356C26.043 45.71 24.4242 47.9394 23.3024 50.3392C21.6126 53.946 21.0304 57.9362 21.5842 61.8128C22.1238 65.6895 23.7994 69.4809 26.6252 72.6049L28.6132 74.8059L76.8224 31.3963V23.4301L29.2664 66.2291Z" fill="#F37022"/>
    <path d="M55.1252 74.8108L76.3685 55.6834L76.8087 47.3053L46.2643 74.8108H55.1252Z" fill="#F37022"/>
</svg>
