<svg width="20" height="18" viewBox="0 0 20 18" fill="none" xmlns="http://www.w3.org/2000/svg">
<g clip-path="url(#clip0_1_205)">
<path fill-rule="evenodd" clip-rule="evenodd" d="M0.721644 0.0485114C0.00764364 0.240511 -0.230356 1.17151 0.298644 1.70051C0.579644 1.98151 0.586644 1.98251 1.95664 1.99451L3.16464 2.00451L3.18164 2.07751C3.19064 2.11751 3.54464 4.05551 3.96664 6.38351C4.38964 8.71251 4.75764 10.7075 4.78664 10.8175C5.03964 11.8005 5.89264 12.6315 6.93164 12.9085L7.21564 12.9835H11.7156C16.7976 12.9835 16.3646 13.0065 16.9656 12.7115C17.2326 12.5805 17.3296 12.5085 17.5846 12.2535C18.0976 11.7405 18.0766 11.7995 18.8716 8.63351L19.5456 5.95051L19.5476 5.50051C19.5486 5.11951 19.5366 5.01251 19.4706 4.80051C19.2026 3.94251 18.5676 3.32551 17.6986 3.07951C17.4926 3.02051 17.1926 3.01751 11.4276 3.00851L5.37264 2.99951L5.31564 2.67451C5.05064 1.18051 4.99264 1.01951 4.56664 0.596511C4.27164 0.304511 3.95464 0.128511 3.58164 0.0505114C3.26664 -0.0154886 0.965644 -0.0174886 0.721644 0.0485114ZM17.2976 5.05851C17.4636 5.14251 17.5656 5.30951 17.5646 5.49751C17.5626 5.71651 16.3216 10.6535 16.2396 10.7635C16.2046 10.8115 16.1256 10.8845 16.0646 10.9255L15.9536 11.0015L11.6676 10.9925L7.38164 10.9835L7.24164 10.9085C7.16364 10.8675 7.04864 10.7875 6.98464 10.7315C6.74464 10.5205 6.73464 10.4805 6.23264 7.71651C5.97664 6.30551 5.75864 5.11651 5.74864 5.07551L5.73064 5.00051H11.4566C16.8406 5.00051 17.1886 5.00451 17.2976 5.05851ZM5.14864 15.0465C4.74964 15.1445 4.33364 15.4695 4.16564 15.8165C3.94664 16.2695 3.94764 16.7305 4.16864 17.1915C4.26664 17.3955 4.60364 17.7325 4.80764 17.8305C5.42864 18.1285 6.07764 18.0255 6.55064 17.5525C7.12964 16.9735 7.14864 16.0925 6.59564 15.4875C6.24064 15.0985 5.66064 14.9225 5.14864 15.0465ZM16.1406 15.0515C15.5486 15.2115 15.1266 15.6765 15.0226 16.2835C14.8596 17.2355 15.7636 18.1395 16.7156 17.9765C17.3716 17.8645 17.8626 17.3735 17.9746 16.7175C18.1486 15.7035 17.1366 14.7835 16.1406 15.0515Z" fill="white"/>
</g>
<defs>
<clipPath id="clip0_1_205">
<rect width="20" height="18" fill="white"/>
</clipPath>
</defs>
</svg>
