<svg width="18" height="18" viewBox="0 0 18 18" fill="none" xmlns="http://www.w3.org/2000/svg">
<g clip-path="url(#clip0_1_201)">
<path fill-rule="evenodd" clip-rule="evenodd" d="M4 5C4 2.23858 6.23857 0 9 0C11.7614 0 13.9999 2.23858 13.9999 5C13.9999 7.76142 11.7614 10 9 10C6.23857 10 4 7.76142 4 5ZM9 2C7.34314 2 6 3.34315 6 5C6 6.65685 7.34314 8 9 8C10.6568 8 11.9999 6.65685 11.9999 5C11.9999 3.34315 10.6568 2 9 2Z" fill="white"/>
<path d="M17.9644 16.7337C17.2571 13.9504 14.751 12 11.8771 12H6.12334C3.2413 12 0.729093 13.9615 0.0300941 16.7575C-0.103855 17.2933 0.221906 17.8362 0.7577 17.9701C1.2935 18.1041 1.83643 17.7783 1.97038 17.2425C2.4468 15.3369 4.15903 14 6.12334 14H11.8771C13.8352 14 15.5428 15.3284 16.0255 17.2243C16.1273 17.6686 16.5251 18 17.0002 18C17.5525 18 18.0002 17.5523 18.0002 17C18.0002 16.9078 17.9878 16.8185 17.9644 16.7337Z" fill="white"/>
</g>
<defs>
<clipPath id="clip0_1_201">
<rect width="18" height="18" fill="white"/>
</clipPath>
</defs>
</svg>
